<svg width="100%" height="100%" viewBox="0 0 314 424" fill="none" xmlns="http://www.w3.org/2000/svg">
<path d="M39.3781 414.353L39.2326 414.475L39.0981 414.61L38.7708 414.937C32.5389 419.81 24.219 420.695 16.5047 417.284C9.47327 413.953 4.79602 406.384 4.79602 398.336V40.96C4.79602 20.9173 21.2133 4.5 41.256 4.5H272.68C292.723 4.5 309.14 20.9173 309.14 40.96V397.824C309.14 405.889 304.444 413.472 297.388 416.792L297.226 416.868L297.071 416.957C294.162 418.62 290.835 419.436 288.04 419.436C283.569 419.436 278.982 417.831 275.143 414.915L274.838 414.61L274.703 414.475L274.558 414.353L159.87 317.585L156.968 315.136L154.066 317.585L39.3781 414.353Z" stroke="white" stroke-width="9"/>
</svg>
